<svg width="50" height="43" viewBox="0 0 50 43" fill="none" xmlns="http://www.w3.org/2000/svg">
<path d="M37 42H49V36.875C49 32.6293 45.7765 29.1875 41.8 29.1875C39.5065 29.1875 37.4635 30.3324 36.145 32.1162M37 42H13M13.855 32.1162C15.6244 27.3964 19.9476 24.0625 25 24.0625C30.0524 24.0625 34.3756 27.3964 36.145 32.1162C36.6966 33.5874 37 35.1934 37 36.875V42M13 42H1V36.875C1 32.6293 4.22355 29.1875 8.2 29.1875C10.4935 29.1875 12.5365 30.3324 13.855 32.1162M13 42V36.875C13 35.1934 13.3034 33.5874 13.855 32.1162M32.2 8.6875C32.2 12.9332 28.9765 16.375 25 16.375C21.0236 16.375 17.8 12.9332 17.8 8.6875C17.8 4.44181 21.0236 1 25 1C28.9765 1 32.2 4.44181 32.2 8.6875ZM46.6 16.375C46.6 19.2055 44.451 21.5 41.8 21.5C39.149 21.5 37 19.2055 37 16.375C37 13.5445 39.149 11.25 41.8 11.25C44.451 11.25 46.6 13.5445 46.6 16.375ZM13 16.375C13 19.2055 10.851 21.5 8.2 21.5C5.54903 21.5 3.4 19.2055 3.4 16.375C3.4 13.5445 5.54903 11.25 8.2 11.25C10.851 11.25 13 13.5445 13 16.375Z" stroke="#111827" stroke-width="2" stroke-linecap="round" stroke-linejoin="round"/>
</svg>
