<svg width="50" height="47" viewBox="0 0 50 47" fill="none" xmlns="http://www.w3.org/2000/svg">
<path d="M19.6667 9.4375H6.33333C3.38781 9.4375 1 11.9559 1 15.0625V40.375C1 43.4816 3.38781 46 6.33333 46H43.6667C46.6122 46 49 43.4816 49 40.375V15.0625C49 11.9559 46.6122 9.4375 43.6667 9.4375H30.3333M19.6667 9.4375V6.625C19.6667 3.5184 22.0545 1 25 1C27.9455 1 30.3333 3.5184 30.3333 6.625V9.4375M19.6667 9.4375C19.6667 12.5441 22.0545 15.0625 25 15.0625C27.9455 15.0625 30.3333 12.5441 30.3333 9.4375M17 31.9375C19.9455 31.9375 22.3333 29.4191 22.3333 26.3125C22.3333 23.2059 19.9455 20.6875 17 20.6875C14.0545 20.6875 11.6667 23.2059 11.6667 26.3125C11.6667 29.4191 14.0545 31.9375 17 31.9375ZM17 31.9375C20.4833 31.9375 23.4464 34.2854 24.5446 37.5625M17 31.9375C13.5168 31.9375 10.5533 34.2854 9.45508 37.5625M33 23.5H41M33 34.75H38.3333" stroke="#111827" stroke-width="2" stroke-linecap="round" stroke-linejoin="round"/>
</svg>
