<svg width="86" height="72" viewBox="0 0 86 72" fill="none" xmlns="http://www.w3.org/2000/svg">
<path d="M57.3333 14.4C57.3333 22.3529 50.9161 28.8 43 28.8C35.0839 28.8 28.6667 22.3529 28.6667 14.4C28.6667 6.4471 35.0839 0 43 0C50.9161 0 57.3333 6.4471 57.3333 14.4Z" fill="#111827"/>
<path d="M81.2222 24C81.2222 29.3019 76.9441 33.6 71.6667 33.6C66.3893 33.6 62.1111 29.3019 62.1111 24C62.1111 18.6981 66.3893 14.4 71.6667 14.4C76.9441 14.4 81.2222 18.6981 81.2222 24Z" fill="#111827"/>
<path d="M62.1111 57.6C62.1111 46.9961 53.5548 38.4 43 38.4C32.4452 38.4 23.8889 46.9961 23.8889 57.6V72H62.1111V57.6Z" fill="#111827"/>
<path d="M23.8889 24C23.8889 29.3019 19.6107 33.6 14.3333 33.6C9.05595 33.6 4.77778 29.3019 4.77778 24C4.77778 18.6981 9.05595 14.4 14.3333 14.4C19.6107 14.4 23.8889 18.6981 23.8889 24Z" fill="#111827"/>
<path d="M71.6667 72V57.6C71.6667 52.5401 70.3678 47.785 68.0869 43.6528C69.2311 43.3572 70.4306 43.2 71.6667 43.2C79.5827 43.2 86 49.6471 86 57.6V72H71.6667Z" fill="#111827"/>
<path d="M17.9131 43.6528C15.6322 47.785 14.3333 52.5401 14.3333 57.6V72H0V57.6C0 49.6471 6.41725 43.2 14.3333 43.2C15.5694 43.2 16.7689 43.3572 17.9131 43.6528Z" fill="#111827"/>
</svg>
