<svg width="61" height="68" viewBox="0 0 61 68" fill="none" xmlns="http://www.w3.org/2000/svg">
<path d="M1.5 15.9444V52.0556C1.5 60.033 14.4837 66.5 30.5 66.5C46.5163 66.5 59.5 60.033 59.5 52.0556V15.9444M1.5 15.9444C1.5 23.9219 14.4837 30.3889 30.5 30.3889C46.5163 30.3889 59.5 23.9219 59.5 15.9444M1.5 15.9444C1.5 7.967 14.4837 1.5 30.5 1.5C46.5163 1.5 59.5 7.967 59.5 15.9444M59.5 34C59.5 41.9774 46.5163 48.4444 30.5 48.4444C14.4837 48.4444 1.5 41.9774 1.5 34" stroke="#111827" stroke-width="3"/>
</svg>
