<svg width="65" height="65" viewBox="0 0 65 65" fill="none" xmlns="http://www.w3.org/2000/svg">
<path d="M40.318 23.1497C40.8609 23.7754 41.8083 23.8426 42.434 23.2996C43.0597 22.7567 43.1268 21.8093 42.5839 21.1836L41.4509 22.1667L40.318 23.1497ZM24.6821 41.8503C24.1392 41.2246 23.1918 41.1574 22.5661 41.7004C21.9404 42.2433 21.8733 43.1907 22.4162 43.8164L23.5492 42.8333L24.6821 41.8503ZM34 15.2778C34 14.4494 33.3284 13.7778 32.5 13.7778C31.6716 13.7778 31 14.4494 31 15.2778H32.5H34ZM31 49.7222C31 50.5506 31.6715 51.2222 32.5 51.2222C33.3284 51.2222 34 50.5507 34 49.7223L32.5 49.7222L31 49.7222ZM63.5 32.5H62C62 48.7924 48.7924 62 32.5 62V63.5V65C50.4493 65 65 50.4493 65 32.5H63.5ZM32.5 63.5V62C16.2076 62 3 48.7924 3 32.5H1.5H0C0 50.4493 14.5507 65 32.5 65V63.5ZM1.5 32.5H3C3 16.2076 16.2076 3 32.5 3V1.5V0C14.5507 0 0 14.5507 0 32.5H1.5ZM32.5 1.5V3C48.7924 3 62 16.2076 62 32.5H63.5H65C65 14.5507 50.4493 0 32.5 0V1.5ZM32.5 32.5V31C29.9014 31 27.6166 30.2951 26.0253 29.2342C24.4235 28.1664 23.6667 26.8559 23.6667 25.6111H22.1667H20.6667C20.6667 28.171 22.223 30.3049 24.3612 31.7304C26.5098 33.1628 29.3917 34 32.5 34V32.5ZM22.1667 25.6111H23.6667C23.6667 24.3664 24.4235 23.0559 26.0253 21.988C27.6166 20.9271 29.9014 20.2222 32.5 20.2222V18.7222V17.2222C29.3917 17.2222 26.5098 18.0594 24.3612 19.4919C22.223 20.9173 20.6667 23.0512 20.6667 25.6111H22.1667ZM32.5 18.7222V20.2222C36.0148 20.2222 38.8889 21.5027 40.318 23.1497L41.4509 22.1667L42.5839 21.1836C40.4396 18.7124 36.6348 17.2222 32.5 17.2222V18.7222ZM32.5 32.5V34C35.0986 34 37.3834 34.7049 38.9748 35.7658C40.5766 36.8337 41.3334 38.1442 41.3334 39.3889H42.8334H44.3334C44.3334 36.829 42.777 34.6951 40.6389 33.2696C38.4902 31.8372 35.6083 31 32.5 31V32.5ZM32.5 15.2778H31V18.7222H32.5H34V15.2778H32.5ZM32.5001 46.2778L31.0001 46.2777L31 49.7222L32.5 49.7222L34 49.7223L34.0001 46.2778L32.5001 46.2778ZM32.5001 46.2778L32.5001 44.7778C28.9853 44.7778 26.1112 43.4972 24.6821 41.8503L23.5492 42.8333L22.4162 43.8164C24.5605 46.2876 28.3654 47.7778 32.5001 47.7778L32.5001 46.2778ZM42.8334 39.3889H41.3334C41.3334 40.6336 40.5766 41.9441 38.9748 43.012C37.3835 44.0729 35.0987 44.7778 32.5001 44.7778V46.2778V47.7778C35.6084 47.7778 38.4903 46.9406 40.6389 45.5081C42.777 44.0827 44.3334 41.9488 44.3334 39.3889H42.8334ZM32.5 18.7222L31 18.7222L31.0001 46.2778L32.5001 46.2778L34.0001 46.2778L34 18.7222L32.5 18.7222Z" fill="#111827"/>
</svg>
