<svg width="105" height="105" viewBox="0 0 105 105" fill="none" xmlns="http://www.w3.org/2000/svg">
<path d="M35.3333 1V12.4444M69.6667 1V12.4444M35.3333 92.5556V104M69.6667 92.5556V104M12.4444 35.3333H1M12.4444 69.6667H1M104 35.3333H92.5556M104 69.6667H92.5556M23.8889 92.5556H81.1111C87.4317 92.5556 92.5556 87.4317 92.5556 81.1111V23.8889C92.5556 17.5683 87.4317 12.4444 81.1111 12.4444H23.8889C17.5683 12.4444 12.4444 17.5683 12.4444 23.8889V81.1111C12.4444 87.4317 17.5683 92.5556 23.8889 92.5556ZM35.3333 35.3333H69.6667V69.6667H35.3333V35.3333Z" stroke="white" stroke-width="2" stroke-linecap="round" stroke-linejoin="round"/>
</svg>
