<svg width="39" height="51" viewBox="0 0 39 51" fill="none" xmlns="http://www.w3.org/2000/svg">
<path d="M12.2889 30.2479C11.9042 29.8516 11.2711 29.8423 10.8749 30.227C10.4786 30.6117 10.4692 31.2448 10.8539 31.641L11.5714 30.9444L12.2889 30.2479ZM16.8571 36.3889L16.1397 37.0855C16.328 37.2794 16.5868 37.3889 16.8571 37.3889C17.1275 37.3889 17.3863 37.2794 17.5746 37.0855L16.8571 36.3889ZM28.1461 26.1966C28.5308 25.8003 28.5214 25.1672 28.1251 24.7825C27.7289 24.3978 27.0958 24.4072 26.7111 24.8034L27.4286 25.5L28.1461 26.1966ZM38 11.8889H37V44.5556H38H39V11.8889H38ZM32.7143 50V49H6.28571V50V51H32.7143V50ZM1 44.5556H2V11.8889H1H0V44.5556H1ZM6.28571 6.44444V7.44444H11.5714V6.44444V5.44444H6.28571V6.44444ZM27.4286 6.44444V7.44444H32.7143V6.44444V5.44444H27.4286V6.44444ZM6.28571 50V49C3.94646 49 2 47.0383 2 44.5556H1H0C0 48.0866 2.78653 51 6.28571 51V50ZM38 44.5556H37C37 47.0383 35.0535 49 32.7143 49V50V51C36.2135 51 39 48.0866 39 44.5556H38ZM38 11.8889H39C39 8.35782 36.2135 5.44444 32.7143 5.44444V6.44444V7.44444C35.0535 7.44444 37 9.40619 37 11.8889H38ZM1 11.8889H2C2 9.40619 3.94646 7.44444 6.28571 7.44444V6.44444V5.44444C2.78653 5.44444 0 8.35782 0 11.8889H1ZM11.5714 30.9444L10.8539 31.641L16.1397 37.0855L16.8571 36.3889L17.5746 35.6923L12.2889 30.2479L11.5714 30.9444ZM16.8571 36.3889L17.5746 37.0855L28.1461 26.1966L27.4286 25.5L26.7111 24.8034L16.1397 35.6923L16.8571 36.3889ZM16.8571 1V2H22.1429V1V0H16.8571V1ZM22.1429 11.8889V10.8889H16.8571V11.8889V12.8889H22.1429V11.8889ZM16.8571 11.8889V10.8889C14.5179 10.8889 12.5714 8.92714 12.5714 6.44444H11.5714H10.5714C10.5714 9.97552 13.358 12.8889 16.8571 12.8889V11.8889ZM27.4286 6.44444H26.4286C26.4286 8.92714 24.4821 10.8889 22.1429 10.8889V11.8889V12.8889C25.642 12.8889 28.4286 9.97552 28.4286 6.44444H27.4286ZM22.1429 1V2C24.4821 2 26.4286 3.96175 26.4286 6.44444H27.4286H28.4286C28.4286 2.91337 25.642 0 22.1429 0V1ZM16.8571 1V0C13.358 0 10.5714 2.91337 10.5714 6.44444H11.5714H12.5714C12.5714 3.96175 14.5179 2 16.8571 2V1Z" fill="#111827"/>
</svg>
